<svg xmlns="http://www.w3.org/2000/svg" xmlns:xlink="http://www.w3.org/1999/xlink" viewBox="0 0 175.66 175.66"><defs><style>.cls-1{fill:none;}.cls-2{clip-path:url(#clip-path);}.cls-3{fill:url(#linear-gradient);}.cls-4{fill:#4274b9;}.cls-5{fill:#52caf4;}.cls-6{fill:#5eb3e4;}</style><clipPath id="clip-path" transform="translate(36.78 68.14)"><path class="cls-1" d="M34,0,0,19.64V58.92L34,78.56,68,58.92V19.64Zm17,49.11L34,59,17,49.11V29.45l17-9.84,17,9.84Z"/></clipPath><linearGradient id="linear-gradient" x1="-162.01" y1="246.02" x2="117.27" y2="-50.66" gradientTransform="translate(0.29 -0.75) rotate(0.84)" gradientUnits="userSpaceOnUse"><stop offset="0" stop-color="#ed2029"/><stop offset="0.22" stop-color="#ed2c92"/><stop offset="0.26" stop-color="#e72f94"/><stop offset="0.32" stop-color="#d63899"/><stop offset="0.38" stop-color="#ba47a2"/><stop offset="0.45" stop-color="#935caf"/><stop offset="0.52" stop-color="#6177be"/><stop offset="0.6" stop-color="#2597d2"/><stop offset="0.64" stop-color="#01aadd"/><stop offset="0.9" stop-color="#e9d01a"/><stop offset="1" stop-color="#fed401"/></linearGradient></defs><g id="Layer_2" data-name="Layer 2"><g id="Layer_1-2" data-name="Layer 1"><g class="cls-2"><circle class="cls-3" cx="51.05" cy="19.69" r="87.83" transform="translate(36.5 68.89) rotate(-0.84)"/></g><polygon class="cls-4" points="70.8 87.75 87.83 97.52 87.83 117.31 70.8 107.55 70.8 87.75"/><polygon class="cls-5" points="70.83 87.76 87.8 97.52 104.83 87.8 87.83 77.97 70.83 87.76"/><polygon class="cls-6" points="87.83 97.52 87.86 117.31 104.83 107.42 104.79 87.83 87.83 97.52"/></g></g></svg>